<?xml version="1.0" encoding="utf-8" standalone="no"?>
<!DOCTYPE svg PUBLIC "-//W3C//DTD SVG 1.1//EN"
  "http://www.w3.org/Graphics/SVG/1.1/DTD/svg11.dtd">
<!-- Created with matplotlib (https://matplotlib.org/) -->
<svg height="345.6pt" version="1.1" viewBox="0 0 460.8 345.6" width="460.8pt" xmlns="http://www.w3.org/2000/svg" xmlns:xlink="http://www.w3.org/1999/xlink">
 <defs>
  <style type="text/css">
*{stroke-linecap:butt;stroke-linejoin:round;}
  </style>
 </defs>
 <g id="figure_1">
  <g id="patch_1">
   <path d="M 0 345.6 
L 460.8 345.6 
L 460.8 0 
L 0 0 
z
" style="fill:#ffffff;"/>
  </g>
  <g id="axes_1">
   <g id="patch_2">
    <path d="M 57.44 162.66125 
L 450 162.66125 
L 450 26.16 
L 57.44 26.16 
z
" style="fill:#ffffff;"/>
   </g>
   <g id="patch_3">
    <path clip-path="url(#p599890e99b)" d="M 58.949846 162.66125 
L 71.028615 162.66125 
L 71.028615 32.66006 
L 58.949846 32.66006 
z
" style="fill:#ea96a3;"/>
   </g>
   <g id="patch_4">
    <path clip-path="url(#p599890e99b)" d="M 74.048308 162.66125 
L 86.127077 162.66125 
L 86.127077 98.80207 
L 74.048308 98.80207 
z
" style="fill:#e9978d;"/>
   </g>
   <g id="patch_5">
    <path clip-path="url(#p599890e99b)" d="M 89.146769 162.66125 
L 101.225538 162.66125 
L 101.225538 103.287632 
L 89.146769 103.287632 
z
" style="fill:#e39361;"/>
   </g>
   <g id="patch_6">
    <path clip-path="url(#p599890e99b)" d="M 104.245231 162.66125 
L 116.324 162.66125 
L 116.324 108.994708 
L 104.245231 108.994708 
z
" style="fill:#cf964c;"/>
   </g>
   <g id="patch_7">
    <path clip-path="url(#p599890e99b)" d="M 119.343692 162.66125 
L 131.422462 162.66125 
L 131.422462 126.776756 
L 119.343692 126.776756 
z
" style="fill:#be9b4a;"/>
   </g>
   <g id="patch_8">
    <path clip-path="url(#p599890e99b)" d="M 134.442154 162.66125 
L 146.520923 162.66125 
L 146.520923 137.089543 
L 134.442154 137.089543 
z
" style="fill:#ae9d48;"/>
   </g>
   <g id="patch_9">
    <path clip-path="url(#p599890e99b)" d="M 149.540615 162.66125 
L 161.619385 162.66125 
L 161.619385 138.451232 
L 149.540615 138.451232 
z
" style="fill:#9fa045;"/>
   </g>
   <g id="patch_10">
    <path clip-path="url(#p599890e99b)" d="M 164.639077 162.66125 
L 176.717846 162.66125 
L 176.717846 138.811679 
L 164.639077 138.811679 
z
" style="fill:#90a546;"/>
   </g>
   <g id="patch_11">
    <path clip-path="url(#p599890e99b)" d="M 179.737538 162.66125 
L 191.816308 162.66125 
L 191.816308 139.792895 
L 179.737538 139.792895 
z
" style="fill:#7aaa47;"/>
   </g>
   <g id="patch_12">
    <path clip-path="url(#p599890e99b)" d="M 194.836 162.66125 
L 206.914769 162.66125 
L 206.914769 150.626328 
L 194.836 150.626328 
z
" style="fill:#47b149;"/>
   </g>
   <g id="patch_13">
    <path clip-path="url(#p599890e99b)" d="M 209.934462 162.66125 
L 222.013231 162.66125 
L 222.013231 152.16824 
L 209.934462 152.16824 
z
" style="fill:#49af79;"/>
   </g>
   <g id="patch_14">
    <path clip-path="url(#p599890e99b)" d="M 225.032923 162.66125 
L 237.111692 162.66125 
L 237.111692 154.771467 
L 225.032923 154.771467 
z
" style="fill:#4aad8d;"/>
   </g>
   <g id="patch_15">
    <path clip-path="url(#p599890e99b)" d="M 240.131385 162.66125 
L 252.210154 162.66125 
L 252.210154 155.212014 
L 240.131385 155.212014 
z
" style="fill:#4aac9a;"/>
   </g>
   <g id="patch_16">
    <path clip-path="url(#p599890e99b)" d="M 255.229846 162.66125 
L 267.308615 162.66125 
L 267.308615 155.532411 
L 255.229846 155.532411 
z
" style="fill:#4baba4;"/>
   </g>
   <g id="patch_17">
    <path clip-path="url(#p599890e99b)" d="M 270.328308 162.66125 
L 282.407077 162.66125 
L 282.407077 155.712634 
L 270.328308 155.712634 
z
" style="fill:#4cabae;"/>
   </g>
   <g id="patch_18">
    <path clip-path="url(#p599890e99b)" d="M 285.426769 162.66125 
L 297.505538 162.66125 
L 297.505538 155.892858 
L 285.426769 155.892858 
z
" style="fill:#4fabba;"/>
   </g>
   <g id="patch_19">
    <path clip-path="url(#p599890e99b)" d="M 300.525231 162.66125 
L 312.604 162.66125 
L 312.604 156.433528 
L 300.525231 156.433528 
z
" style="fill:#52acc9;"/>
   </g>
   <g id="patch_20">
    <path clip-path="url(#p599890e99b)" d="M 315.623692 162.66125 
L 327.702462 162.66125 
L 327.702462 157.034273 
L 315.623692 157.034273 
z
" style="fill:#57adde;"/>
   </g>
   <g id="patch_21">
    <path clip-path="url(#p599890e99b)" d="M 330.722154 162.66125 
L 342.800923 162.66125 
L 342.800923 159.437253 
L 330.722154 159.437253 
z
" style="fill:#8daee7;"/>
   </g>
   <g id="patch_22">
    <path clip-path="url(#p599890e99b)" d="M 345.820615 162.66125 
L 357.899385 162.66125 
L 357.899385 160.037997 
L 345.820615 160.037997 
z
" style="fill:#acaceb;"/>
   </g>
   <g id="patch_23">
    <path clip-path="url(#p599890e99b)" d="M 360.919077 162.66125 
L 372.997846 162.66125 
L 372.997846 160.979164 
L 360.919077 160.979164 
z
" style="fill:#bfa3ea;"/>
   </g>
   <g id="patch_24">
    <path clip-path="url(#p599890e99b)" d="M 376.017538 162.66125 
L 388.096308 162.66125 
L 388.096308 161.339611 
L 376.017538 161.339611 
z
" style="fill:#d299e9;"/>
   </g>
   <g id="patch_25">
    <path clip-path="url(#p599890e99b)" d="M 391.116 162.66125 
L 403.194769 162.66125 
L 403.194769 161.399686 
L 391.116 161.399686 
z
" style="fill:#e689e6;"/>
   </g>
   <g id="patch_26">
    <path clip-path="url(#p599890e99b)" d="M 406.214462 162.66125 
L 418.293231 162.66125 
L 418.293231 161.900306 
L 406.214462 161.900306 
z
" style="fill:#e78dd3;"/>
   </g>
   <g id="patch_27">
    <path clip-path="url(#p599890e99b)" d="M 421.312923 162.66125 
L 433.391692 162.66125 
L 433.391692 162.481027 
L 421.312923 162.481027 
z
" style="fill:#e891c3;"/>
   </g>
   <g id="patch_28">
    <path clip-path="url(#p599890e99b)" d="M 436.411385 162.66125 
L 448.490154 162.66125 
L 448.490154 162.521076 
L 436.411385 162.521076 
z
" style="fill:#e993b4;"/>
   </g>
   <g id="matplotlib.axis_1">
    <g id="xtick_1">
     <g id="line2d_1">
      <defs>
       <path d="M 0 0 
L 0 3.5 
" id="mc53c039dff" style="stroke:#000000;stroke-width:0.8;"/>
      </defs>
      <g>
       <use style="stroke:#000000;stroke-width:0.8;" x="64.989231" xlink:href="#mc53c039dff" y="162.66125"/>
      </g>
     </g>
     <g id="text_1">
      <!-- Trafficking -->
      <defs>
       <path d="M -0.296875 72.90625 
L 61.375 72.90625 
L 61.375 64.59375 
L 35.5 64.59375 
L 35.5 0 
L 25.59375 0 
L 25.59375 64.59375 
L -0.296875 64.59375 
z
" id="DejaVuSans-84"/>
       <path d="M 41.109375 46.296875 
Q 39.59375 47.171875 37.8125 47.578125 
Q 36.03125 48 33.890625 48 
Q 26.265625 48 22.1875 43.046875 
Q 18.109375 38.09375 18.109375 28.8125 
L 18.109375 0 
L 9.078125 0 
L 9.078125 54.6875 
L 18.109375 54.6875 
L 18.109375 46.1875 
Q 20.953125 51.171875 25.484375 53.578125 
Q 30.03125 56 36.53125 56 
Q 37.453125 56 38.578125 55.875 
Q 39.703125 55.765625 41.0625 55.515625 
z
" id="DejaVuSans-114"/>
       <path d="M 34.28125 27.484375 
Q 23.390625 27.484375 19.1875 25 
Q 14.984375 22.515625 14.984375 16.5 
Q 14.984375 11.71875 18.140625 8.90625 
Q 21.296875 6.109375 26.703125 6.109375 
Q 34.1875 6.109375 38.703125 11.40625 
Q 43.21875 16.703125 43.21875 25.484375 
L 43.21875 27.484375 
z
M 52.203125 31.203125 
L 52.203125 0 
L 43.21875 0 
L 43.21875 8.296875 
Q 40.140625 3.328125 35.546875 0.953125 
Q 30.953125 -1.421875 24.3125 -1.421875 
Q 15.921875 -1.421875 10.953125 3.296875 
Q 6 8.015625 6 15.921875 
Q 6 25.140625 12.171875 29.828125 
Q 18.359375 34.515625 30.609375 34.515625 
L 43.21875 34.515625 
L 43.21875 35.40625 
Q 43.21875 41.609375 39.140625 45 
Q 35.0625 48.390625 27.6875 48.390625 
Q 23 48.390625 18.546875 47.265625 
Q 14.109375 46.140625 10.015625 43.890625 
L 10.015625 52.203125 
Q 14.9375 54.109375 19.578125 55.046875 
Q 24.21875 56 28.609375 56 
Q 40.484375 56 46.34375 49.84375 
Q 52.203125 43.703125 52.203125 31.203125 
z
" id="DejaVuSans-97"/>
       <path d="M 37.109375 75.984375 
L 37.109375 68.5 
L 28.515625 68.5 
Q 23.6875 68.5 21.796875 66.546875 
Q 19.921875 64.59375 19.921875 59.515625 
L 19.921875 54.6875 
L 34.71875 54.6875 
L 34.71875 47.703125 
L 19.921875 47.703125 
L 19.921875 0 
L 10.890625 0 
L 10.890625 47.703125 
L 2.296875 47.703125 
L 2.296875 54.6875 
L 10.890625 54.6875 
L 10.890625 58.5 
Q 10.890625 67.625 15.140625 71.796875 
Q 19.390625 75.984375 28.609375 75.984375 
z
" id="DejaVuSans-102"/>
       <path d="M 9.421875 54.6875 
L 18.40625 54.6875 
L 18.40625 0 
L 9.421875 0 
z
M 9.421875 75.984375 
L 18.40625 75.984375 
L 18.40625 64.59375 
L 9.421875 64.59375 
z
" id="DejaVuSans-105"/>
       <path d="M 48.78125 52.59375 
L 48.78125 44.1875 
Q 44.96875 46.296875 41.140625 47.34375 
Q 37.3125 48.390625 33.40625 48.390625 
Q 24.65625 48.390625 19.8125 42.84375 
Q 14.984375 37.3125 14.984375 27.296875 
Q 14.984375 17.28125 19.8125 11.734375 
Q 24.65625 6.203125 33.40625 6.203125 
Q 37.3125 6.203125 41.140625 7.25 
Q 44.96875 8.296875 48.78125 10.40625 
L 48.78125 2.09375 
Q 45.015625 0.34375 40.984375 -0.53125 
Q 36.96875 -1.421875 32.421875 -1.421875 
Q 20.0625 -1.421875 12.78125 6.34375 
Q 5.515625 14.109375 5.515625 27.296875 
Q 5.515625 40.671875 12.859375 48.328125 
Q 20.21875 56 33.015625 56 
Q 37.15625 56 41.109375 55.140625 
Q 45.0625 54.296875 48.78125 52.59375 
z
" id="DejaVuSans-99"/>
       <path d="M 9.078125 75.984375 
L 18.109375 75.984375 
L 18.109375 31.109375 
L 44.921875 54.6875 
L 56.390625 54.6875 
L 27.390625 29.109375 
L 57.625 0 
L 45.90625 0 
L 18.109375 26.703125 
L 18.109375 0 
L 9.078125 0 
z
" id="DejaVuSans-107"/>
       <path d="M 54.890625 33.015625 
L 54.890625 0 
L 45.90625 0 
L 45.90625 32.71875 
Q 45.90625 40.484375 42.875 44.328125 
Q 39.84375 48.1875 33.796875 48.1875 
Q 26.515625 48.1875 22.3125 43.546875 
Q 18.109375 38.921875 18.109375 30.90625 
L 18.109375 0 
L 9.078125 0 
L 9.078125 54.6875 
L 18.109375 54.6875 
L 18.109375 46.1875 
Q 21.34375 51.125 25.703125 53.5625 
Q 30.078125 56 35.796875 56 
Q 45.21875 56 50.046875 50.171875 
Q 54.890625 44.34375 54.890625 33.015625 
z
" id="DejaVuSans-110"/>
       <path d="M 45.40625 27.984375 
Q 45.40625 37.75 41.375 43.109375 
Q 37.359375 48.484375 30.078125 48.484375 
Q 22.859375 48.484375 18.828125 43.109375 
Q 14.796875 37.75 14.796875 27.984375 
Q 14.796875 18.265625 18.828125 12.890625 
Q 22.859375 7.515625 30.078125 7.515625 
Q 37.359375 7.515625 41.375 12.890625 
Q 45.40625 18.265625 45.40625 27.984375 
z
M 54.390625 6.78125 
Q 54.390625 -7.171875 48.1875 -13.984375 
Q 42 -20.796875 29.203125 -20.796875 
Q 24.46875 -20.796875 20.265625 -20.09375 
Q 16.0625 -19.390625 12.109375 -17.921875 
L 12.109375 -9.1875 
Q 16.0625 -11.328125 19.921875 -12.34375 
Q 23.78125 -13.375 27.78125 -13.375 
Q 36.625 -13.375 41.015625 -8.765625 
Q 45.40625 -4.15625 45.40625 5.171875 
L 45.40625 9.625 
Q 42.625 4.78125 38.28125 2.390625 
Q 33.9375 0 27.875 0 
Q 17.828125 0 11.671875 7.65625 
Q 5.515625 15.328125 5.515625 27.984375 
Q 5.515625 40.671875 11.671875 48.328125 
Q 17.828125 56 27.875 56 
Q 33.9375 56 38.28125 53.609375 
Q 42.625 51.21875 45.40625 46.390625 
L 45.40625 54.6875 
L 54.390625 54.6875 
z
" id="DejaVuSans-103"/>
      </defs>
      <g transform="translate(67.748606 222.558125)rotate(-90)scale(0.1 -0.1)">
       <use xlink:href="#DejaVuSans-84"/>
       <use x="60.865234" xlink:href="#DejaVuSans-114"/>
       <use x="101.978516" xlink:href="#DejaVuSans-97"/>
       <use x="163.257812" xlink:href="#DejaVuSans-102"/>
       <use x="198.462891" xlink:href="#DejaVuSans-102"/>
       <use x="233.667969" xlink:href="#DejaVuSans-105"/>
       <use x="261.451172" xlink:href="#DejaVuSans-99"/>
       <use x="316.431641" xlink:href="#DejaVuSans-107"/>
       <use x="374.341797" xlink:href="#DejaVuSans-105"/>
       <use x="402.125" xlink:href="#DejaVuSans-110"/>
       <use x="465.503906" xlink:href="#DejaVuSans-103"/>
      </g>
     </g>
    </g>
    <g id="xtick_2">
     <g id="line2d_2">
      <g>
       <use style="stroke:#000000;stroke-width:0.8;" x="80.087692" xlink:href="#mc53c039dff" y="162.66125"/>
      </g>
     </g>
     <g id="text_2">
      <!-- Assault -->
      <defs>
       <path d="M 34.1875 63.1875 
L 20.796875 26.90625 
L 47.609375 26.90625 
z
M 28.609375 72.90625 
L 39.796875 72.90625 
L 67.578125 0 
L 57.328125 0 
L 50.6875 18.703125 
L 17.828125 18.703125 
L 11.1875 0 
L 0.78125 0 
z
" id="DejaVuSans-65"/>
       <path d="M 44.28125 53.078125 
L 44.28125 44.578125 
Q 40.484375 46.53125 36.375 47.5 
Q 32.28125 48.484375 27.875 48.484375 
Q 21.1875 48.484375 17.84375 46.4375 
Q 14.5 44.390625 14.5 40.28125 
Q 14.5 37.15625 16.890625 35.375 
Q 19.28125 33.59375 26.515625 31.984375 
L 29.59375 31.296875 
Q 39.15625 29.25 43.1875 25.515625 
Q 47.21875 21.78125 47.21875 15.09375 
Q 47.21875 7.46875 41.1875 3.015625 
Q 35.15625 -1.421875 24.609375 -1.421875 
Q 20.21875 -1.421875 15.453125 -0.5625 
Q 10.6875 0.296875 5.421875 2 
L 5.421875 11.28125 
Q 10.40625 8.6875 15.234375 7.390625 
Q 20.0625 6.109375 24.8125 6.109375 
Q 31.15625 6.109375 34.5625 8.28125 
Q 37.984375 10.453125 37.984375 14.40625 
Q 37.984375 18.0625 35.515625 20.015625 
Q 33.0625 21.96875 24.703125 23.78125 
L 21.578125 24.515625 
Q 13.234375 26.265625 9.515625 29.90625 
Q 5.8125 33.546875 5.8125 39.890625 
Q 5.8125 47.609375 11.28125 51.796875 
Q 16.75 56 26.8125 56 
Q 31.78125 56 36.171875 55.265625 
Q 40.578125 54.546875 44.28125 53.078125 
z
" id="DejaVuSans-115"/>
       <path d="M 8.5 21.578125 
L 8.5 54.6875 
L 17.484375 54.6875 
L 17.484375 21.921875 
Q 17.484375 14.15625 20.5 10.265625 
Q 23.53125 6.390625 29.59375 6.390625 
Q 36.859375 6.390625 41.078125 11.03125 
Q 45.3125 15.671875 45.3125 23.6875 
L 45.3125 54.6875 
L 54.296875 54.6875 
L 54.296875 0 
L 45.3125 0 
L 45.3125 8.40625 
Q 42.046875 3.421875 37.71875 1 
Q 33.40625 -1.421875 27.6875 -1.421875 
Q 18.265625 -1.421875 13.375 4.4375 
Q 8.5 10.296875 8.5 21.578125 
z
M 31.109375 56 
z
" id="DejaVuSans-117"/>
       <path d="M 9.421875 75.984375 
L 18.40625 75.984375 
L 18.40625 0 
L 9.421875 0 
z
" id="DejaVuSans-108"/>
       <path d="M 18.3125 70.21875 
L 18.3125 54.6875 
L 36.8125 54.6875 
L 36.8125 47.703125 
L 18.3125 47.703125 
L 18.3125 18.015625 
Q 18.3125 11.328125 20.140625 9.421875 
Q 21.96875 7.515625 27.59375 7.515625 
L 36.8125 7.515625 
L 36.8125 0 
L 27.59375 0 
Q 17.1875 0 13.234375 3.875 
Q 9.28125 7.765625 9.28125 18.015625 
L 9.28125 47.703125 
L 2.6875 47.703125 
L 2.6875 54.6875 
L 9.28125 54.6875 
L 9.28125 70.21875 
z
" id="DejaVuSans-116"/>
      </defs>
      <g transform="translate(82.847067 206.084688)rotate(-90)scale(0.1 -0.1)">
       <use xlink:href="#DejaVuSans-65"/>
       <use x="68.408203" xlink:href="#DejaVuSans-115"/>
       <use x="120.507812" xlink:href="#DejaVuSans-115"/>
       <use x="172.607422" xlink:href="#DejaVuSans-97"/>
       <use x="233.886719" xlink:href="#DejaVuSans-117"/>
       <use x="297.265625" xlink:href="#DejaVuSans-108"/>
       <use x="325.048828" xlink:href="#DejaVuSans-116"/>
      </g>
     </g>
    </g>
    <g id="xtick_3">
     <g id="line2d_3">
      <g>
       <use style="stroke:#000000;stroke-width:0.8;" x="95.186154" xlink:href="#mc53c039dff" y="162.66125"/>
      </g>
     </g>
     <g id="text_3">
      <!-- Burglary -->
      <defs>
       <path d="M 19.671875 34.8125 
L 19.671875 8.109375 
L 35.5 8.109375 
Q 43.453125 8.109375 47.28125 11.40625 
Q 51.125 14.703125 51.125 21.484375 
Q 51.125 28.328125 47.28125 31.5625 
Q 43.453125 34.8125 35.5 34.8125 
z
M 19.671875 64.796875 
L 19.671875 42.828125 
L 34.28125 42.828125 
Q 41.5 42.828125 45.03125 45.53125 
Q 48.578125 48.25 48.578125 53.8125 
Q 48.578125 59.328125 45.03125 62.0625 
Q 41.5 64.796875 34.28125 64.796875 
z
M 9.8125 72.90625 
L 35.015625 72.90625 
Q 46.296875 72.90625 52.390625 68.21875 
Q 58.5 63.53125 58.5 54.890625 
Q 58.5 48.1875 55.375 44.234375 
Q 52.25 40.28125 46.1875 39.3125 
Q 53.46875 37.75 57.5 32.78125 
Q 61.53125 27.828125 61.53125 20.40625 
Q 61.53125 10.640625 54.890625 5.3125 
Q 48.25 0 35.984375 0 
L 9.8125 0 
z
" id="DejaVuSans-66"/>
       <path d="M 32.171875 -5.078125 
Q 28.375 -14.84375 24.75 -17.8125 
Q 21.140625 -20.796875 15.09375 -20.796875 
L 7.90625 -20.796875 
L 7.90625 -13.28125 
L 13.1875 -13.28125 
Q 16.890625 -13.28125 18.9375 -11.515625 
Q 21 -9.765625 23.484375 -3.21875 
L 25.09375 0.875 
L 2.984375 54.6875 
L 12.5 54.6875 
L 29.59375 11.921875 
L 46.6875 54.6875 
L 56.203125 54.6875 
z
" id="DejaVuSans-121"/>
      </defs>
      <g transform="translate(97.945529 212.253437)rotate(-90)scale(0.1 -0.1)">
       <use xlink:href="#DejaVuSans-66"/>
       <use x="68.603516" xlink:href="#DejaVuSans-117"/>
       <use x="131.982422" xlink:href="#DejaVuSans-114"/>
       <use x="173.080078" xlink:href="#DejaVuSans-103"/>
       <use x="236.556641" xlink:href="#DejaVuSans-108"/>
       <use x="264.339844" xlink:href="#DejaVuSans-97"/>
       <use x="325.619141" xlink:href="#DejaVuSans-114"/>
       <use x="366.732422" xlink:href="#DejaVuSans-121"/>
      </g>
     </g>
    </g>
    <g id="xtick_4">
     <g id="line2d_4">
      <g>
       <use style="stroke:#000000;stroke-width:0.8;" x="110.284615" xlink:href="#mc53c039dff" y="162.66125"/>
      </g>
     </g>
     <g id="text_4">
      <!-- Theft -->
      <defs>
       <path d="M 54.890625 33.015625 
L 54.890625 0 
L 45.90625 0 
L 45.90625 32.71875 
Q 45.90625 40.484375 42.875 44.328125 
Q 39.84375 48.1875 33.796875 48.1875 
Q 26.515625 48.1875 22.3125 43.546875 
Q 18.109375 38.921875 18.109375 30.90625 
L 18.109375 0 
L 9.078125 0 
L 9.078125 75.984375 
L 18.109375 75.984375 
L 18.109375 46.1875 
Q 21.34375 51.125 25.703125 53.5625 
Q 30.078125 56 35.796875 56 
Q 45.21875 56 50.046875 50.171875 
Q 54.890625 44.34375 54.890625 33.015625 
z
" id="DejaVuSans-104"/>
       <path d="M 56.203125 29.59375 
L 56.203125 25.203125 
L 14.890625 25.203125 
Q 15.484375 15.921875 20.484375 11.0625 
Q 25.484375 6.203125 34.421875 6.203125 
Q 39.59375 6.203125 44.453125 7.46875 
Q 49.3125 8.734375 54.109375 11.28125 
L 54.109375 2.78125 
Q 49.265625 0.734375 44.1875 -0.34375 
Q 39.109375 -1.421875 33.890625 -1.421875 
Q 20.796875 -1.421875 13.15625 6.1875 
Q 5.515625 13.8125 5.515625 26.8125 
Q 5.515625 40.234375 12.765625 48.109375 
Q 20.015625 56 32.328125 56 
Q 43.359375 56 49.78125 48.890625 
Q 56.203125 41.796875 56.203125 29.59375 
z
M 47.21875 32.234375 
Q 47.125 39.59375 43.09375 43.984375 
Q 39.0625 48.390625 32.421875 48.390625 
Q 24.90625 48.390625 20.390625 44.140625 
Q 15.875 39.890625 15.1875 32.171875 
z
" id="DejaVuSans-101"/>
      </defs>
      <g transform="translate(113.04399 195.69875)rotate(-90)scale(0.1 -0.1)">
       <use xlink:href="#DejaVuSans-84"/>
       <use x="61.083984" xlink:href="#DejaVuSans-104"/>
       <use x="124.462891" xlink:href="#DejaVuSans-101"/>
       <use x="185.986328" xlink:href="#DejaVuSans-102"/>
       <use x="221.175781" xlink:href="#DejaVuSans-116"/>
      </g>
     </g>
    </g>
    <g id="xtick_5">
     <g id="line2d_5">
      <g>
       <use style="stroke:#000000;stroke-width:0.8;" x="125.383077" xlink:href="#mc53c039dff" y="162.66125"/>
      </g>
     </g>
     <g id="text_5">
      <!-- OWI -->
      <defs>
       <path d="M 39.40625 66.21875 
Q 28.65625 66.21875 22.328125 58.203125 
Q 16.015625 50.203125 16.015625 36.375 
Q 16.015625 22.609375 22.328125 14.59375 
Q 28.65625 6.59375 39.40625 6.59375 
Q 50.140625 6.59375 56.421875 14.59375 
Q 62.703125 22.609375 62.703125 36.375 
Q 62.703125 50.203125 56.421875 58.203125 
Q 50.140625 66.21875 39.40625 66.21875 
z
M 39.40625 74.21875 
Q 54.734375 74.21875 63.90625 63.9375 
Q 73.09375 53.65625 73.09375 36.375 
Q 73.09375 19.140625 63.90625 8.859375 
Q 54.734375 -1.421875 39.40625 -1.421875 
Q 24.03125 -1.421875 14.8125 8.828125 
Q 5.609375 19.09375 5.609375 36.375 
Q 5.609375 53.65625 14.8125 63.9375 
Q 24.03125 74.21875 39.40625 74.21875 
z
" id="DejaVuSans-79"/>
       <path d="M 3.328125 72.90625 
L 13.28125 72.90625 
L 28.609375 11.28125 
L 43.890625 72.90625 
L 54.984375 72.90625 
L 70.3125 11.28125 
L 85.59375 72.90625 
L 95.609375 72.90625 
L 77.296875 0 
L 64.890625 0 
L 49.515625 63.28125 
L 33.984375 0 
L 21.578125 0 
z
" id="DejaVuSans-87"/>
       <path d="M 9.8125 72.90625 
L 19.671875 72.90625 
L 19.671875 0 
L 9.8125 0 
z
" id="DejaVuSans-73"/>
      </defs>
      <g transform="translate(128.142452 190.370625)rotate(-90)scale(0.1 -0.1)">
       <use xlink:href="#DejaVuSans-79"/>
       <use x="78.710938" xlink:href="#DejaVuSans-87"/>
       <use x="177.587891" xlink:href="#DejaVuSans-73"/>
      </g>
     </g>
    </g>
    <g id="xtick_6">
     <g id="line2d_6">
      <g>
       <use style="stroke:#000000;stroke-width:0.8;" x="140.481538" xlink:href="#mc53c039dff" y="162.66125"/>
      </g>
     </g>
     <g id="text_6">
      <!-- Sex -->
      <defs>
       <path d="M 53.515625 70.515625 
L 53.515625 60.890625 
Q 47.90625 63.578125 42.921875 64.890625 
Q 37.9375 66.21875 33.296875 66.21875 
Q 25.25 66.21875 20.875 63.09375 
Q 16.5 59.96875 16.5 54.203125 
Q 16.5 49.359375 19.40625 46.890625 
Q 22.3125 44.4375 30.421875 42.921875 
L 36.375 41.703125 
Q 47.40625 39.59375 52.65625 34.296875 
Q 57.90625 29 57.90625 20.125 
Q 57.90625 9.515625 50.796875 4.046875 
Q 43.703125 -1.421875 29.984375 -1.421875 
Q 24.8125 -1.421875 18.96875 -0.25 
Q 13.140625 0.921875 6.890625 3.21875 
L 6.890625 13.375 
Q 12.890625 10.015625 18.65625 8.296875 
Q 24.421875 6.59375 29.984375 6.59375 
Q 38.421875 6.59375 43.015625 9.90625 
Q 47.609375 13.234375 47.609375 19.390625 
Q 47.609375 24.75 44.3125 27.78125 
Q 41.015625 30.8125 33.5 32.328125 
L 27.484375 33.5 
Q 16.453125 35.6875 11.515625 40.375 
Q 6.59375 45.0625 6.59375 53.421875 
Q 6.59375 63.09375 13.40625 68.65625 
Q 20.21875 74.21875 32.171875 74.21875 
Q 37.3125 74.21875 42.625 73.28125 
Q 47.953125 72.359375 53.515625 70.515625 
z
" id="DejaVuSans-83"/>
       <path d="M 54.890625 54.6875 
L 35.109375 28.078125 
L 55.90625 0 
L 45.3125 0 
L 29.390625 21.484375 
L 13.484375 0 
L 2.875 0 
L 24.125 28.609375 
L 4.6875 54.6875 
L 15.28125 54.6875 
L 29.78125 35.203125 
L 44.28125 54.6875 
z
" id="DejaVuSans-120"/>
      </defs>
      <g transform="translate(143.240913 188.08)rotate(-90)scale(0.1 -0.1)">
       <use xlink:href="#DejaVuSans-83"/>
       <use x="63.476562" xlink:href="#DejaVuSans-101"/>
       <use x="124.984375" xlink:href="#DejaVuSans-120"/>
      </g>
     </g>
    </g>
    <g id="xtick_7">
     <g id="line2d_7">
      <g>
       <use style="stroke:#000000;stroke-width:0.8;" x="155.58" xlink:href="#mc53c039dff" y="162.66125"/>
      </g>
     </g>
     <g id="text_7">
      <!-- Forgery/Fraud -->
      <defs>
       <path d="M 9.8125 72.90625 
L 51.703125 72.90625 
L 51.703125 64.59375 
L 19.671875 64.59375 
L 19.671875 43.109375 
L 48.578125 43.109375 
L 48.578125 34.8125 
L 19.671875 34.8125 
L 19.671875 0 
L 9.8125 0 
z
" id="DejaVuSans-70"/>
       <path d="M 30.609375 48.390625 
Q 23.390625 48.390625 19.1875 42.75 
Q 14.984375 37.109375 14.984375 27.296875 
Q 14.984375 17.484375 19.15625 11.84375 
Q 23.34375 6.203125 30.609375 6.203125 
Q 37.796875 6.203125 41.984375 11.859375 
Q 46.1875 17.53125 46.1875 27.296875 
Q 46.1875 37.015625 41.984375 42.703125 
Q 37.796875 48.390625 30.609375 48.390625 
z
M 30.609375 56 
Q 42.328125 56 49.015625 48.375 
Q 55.71875 40.765625 55.71875 27.296875 
Q 55.71875 13.875 49.015625 6.21875 
Q 42.328125 -1.421875 30.609375 -1.421875 
Q 18.84375 -1.421875 12.171875 6.21875 
Q 5.515625 13.875 5.515625 27.296875 
Q 5.515625 40.765625 12.171875 48.375 
Q 18.84375 56 30.609375 56 
z
" id="DejaVuSans-111"/>
       <path d="M 25.390625 72.90625 
L 33.6875 72.90625 
L 8.296875 -9.28125 
L 0 -9.28125 
z
" id="DejaVuSans-47"/>
       <path d="M 45.40625 46.390625 
L 45.40625 75.984375 
L 54.390625 75.984375 
L 54.390625 0 
L 45.40625 0 
L 45.40625 8.203125 
Q 42.578125 3.328125 38.25 0.953125 
Q 33.9375 -1.421875 27.875 -1.421875 
Q 17.96875 -1.421875 11.734375 6.484375 
Q 5.515625 14.40625 5.515625 27.296875 
Q 5.515625 40.1875 11.734375 48.09375 
Q 17.96875 56 27.875 56 
Q 33.9375 56 38.25 53.625 
Q 42.578125 51.265625 45.40625 46.390625 
z
M 14.796875 27.296875 
Q 14.796875 17.390625 18.875 11.75 
Q 22.953125 6.109375 30.078125 6.109375 
Q 37.203125 6.109375 41.296875 11.75 
Q 45.40625 17.390625 45.40625 27.296875 
Q 45.40625 37.203125 41.296875 42.84375 
Q 37.203125 48.484375 30.078125 48.484375 
Q 22.953125 48.484375 18.875 42.84375 
Q 14.796875 37.203125 14.796875 27.296875 
z
" id="DejaVuSans-100"/>
      </defs>
      <g transform="translate(158.339375 240.201875)rotate(-90)scale(0.1 -0.1)">
       <use xlink:href="#DejaVuSans-70"/>
       <use x="57.472656" xlink:href="#DejaVuSans-111"/>
       <use x="118.654297" xlink:href="#DejaVuSans-114"/>
       <use x="159.751953" xlink:href="#DejaVuSans-103"/>
       <use x="223.228516" xlink:href="#DejaVuSans-101"/>
       <use x="284.751953" xlink:href="#DejaVuSans-114"/>
       <use x="325.865234" xlink:href="#DejaVuSans-121"/>
       <use x="385.044922" xlink:href="#DejaVuSans-47"/>
       <use x="418.736328" xlink:href="#DejaVuSans-70"/>
       <use x="476.146484" xlink:href="#DejaVuSans-114"/>
       <use x="517.259766" xlink:href="#DejaVuSans-97"/>
       <use x="578.539062" xlink:href="#DejaVuSans-117"/>
       <use x="641.917969" xlink:href="#DejaVuSans-100"/>
      </g>
     </g>
    </g>
    <g id="xtick_8">
     <g id="line2d_8">
      <g>
       <use style="stroke:#000000;stroke-width:0.8;" x="170.678462" xlink:href="#mc53c039dff" y="162.66125"/>
      </g>
     </g>
     <g id="text_8">
      <!-- Other Criminal -->
      <defs>
       <path id="DejaVuSans-32"/>
       <path d="M 64.40625 67.28125 
L 64.40625 56.890625 
Q 59.421875 61.53125 53.78125 63.8125 
Q 48.140625 66.109375 41.796875 66.109375 
Q 29.296875 66.109375 22.65625 58.46875 
Q 16.015625 50.828125 16.015625 36.375 
Q 16.015625 21.96875 22.65625 14.328125 
Q 29.296875 6.6875 41.796875 6.6875 
Q 48.140625 6.6875 53.78125 8.984375 
Q 59.421875 11.28125 64.40625 15.921875 
L 64.40625 5.609375 
Q 59.234375 2.09375 53.4375 0.328125 
Q 47.65625 -1.421875 41.21875 -1.421875 
Q 24.65625 -1.421875 15.125 8.703125 
Q 5.609375 18.84375 5.609375 36.375 
Q 5.609375 53.953125 15.125 64.078125 
Q 24.65625 74.21875 41.21875 74.21875 
Q 47.75 74.21875 53.53125 72.484375 
Q 59.328125 70.75 64.40625 67.28125 
z
" id="DejaVuSans-67"/>
       <path d="M 52 44.1875 
Q 55.375 50.25 60.0625 53.125 
Q 64.75 56 71.09375 56 
Q 79.640625 56 84.28125 50.015625 
Q 88.921875 44.046875 88.921875 33.015625 
L 88.921875 0 
L 79.890625 0 
L 79.890625 32.71875 
Q 79.890625 40.578125 77.09375 44.375 
Q 74.3125 48.1875 68.609375 48.1875 
Q 61.625 48.1875 57.5625 43.546875 
Q 53.515625 38.921875 53.515625 30.90625 
L 53.515625 0 
L 44.484375 0 
L 44.484375 32.71875 
Q 44.484375 40.625 41.703125 44.40625 
Q 38.921875 48.1875 33.109375 48.1875 
Q 26.21875 48.1875 22.15625 43.53125 
Q 18.109375 38.875 18.109375 30.90625 
L 18.109375 0 
L 9.078125 0 
L 9.078125 54.6875 
L 18.109375 54.6875 
L 18.109375 46.1875 
Q 21.1875 51.21875 25.484375 53.609375 
Q 29.78125 56 35.6875 56 
Q 41.65625 56 45.828125 52.96875 
Q 50 49.953125 52 44.1875 
z
" id="DejaVuSans-109"/>
      </defs>
      <g transform="translate(173.437837 242.8675)rotate(-90)scale(0.1 -0.1)">
       <use xlink:href="#DejaVuSans-79"/>
       <use x="78.710938" xlink:href="#DejaVuSans-116"/>
       <use x="117.919922" xlink:href="#DejaVuSans-104"/>
       <use x="181.298828" xlink:href="#DejaVuSans-101"/>
       <use x="242.822266" xlink:href="#DejaVuSans-114"/>
       <use x="283.935547" xlink:href="#DejaVuSans-32"/>
       <use x="315.722656" xlink:href="#DejaVuSans-67"/>
       <use x="385.546875" xlink:href="#DejaVuSans-114"/>
       <use x="426.660156" xlink:href="#DejaVuSans-105"/>
       <use x="454.443359" xlink:href="#DejaVuSans-109"/>
       <use x="551.855469" xlink:href="#DejaVuSans-105"/>
       <use x="579.638672" xlink:href="#DejaVuSans-110"/>
       <use x="643.017578" xlink:href="#DejaVuSans-97"/>
       <use x="704.296875" xlink:href="#DejaVuSans-108"/>
      </g>
     </g>
    </g>
    <g id="xtick_9">
     <g id="line2d_9">
      <g>
       <use style="stroke:#000000;stroke-width:0.8;" x="185.776923" xlink:href="#mc53c039dff" y="162.66125"/>
      </g>
     </g>
     <g id="text_9">
      <!-- Drug Possession -->
      <defs>
       <path d="M 19.671875 64.796875 
L 19.671875 8.109375 
L 31.59375 8.109375 
Q 46.6875 8.109375 53.6875 14.9375 
Q 60.6875 21.78125 60.6875 36.53125 
Q 60.6875 51.171875 53.6875 57.984375 
Q 46.6875 64.796875 31.59375 64.796875 
z
M 9.8125 72.90625 
L 30.078125 72.90625 
Q 51.265625 72.90625 61.171875 64.09375 
Q 71.09375 55.28125 71.09375 36.53125 
Q 71.09375 17.671875 61.125 8.828125 
Q 51.171875 0 30.078125 0 
L 9.8125 0 
z
" id="DejaVuSans-68"/>
       <path d="M 19.671875 64.796875 
L 19.671875 37.40625 
L 32.078125 37.40625 
Q 38.96875 37.40625 42.71875 40.96875 
Q 46.484375 44.53125 46.484375 51.125 
Q 46.484375 57.671875 42.71875 61.234375 
Q 38.96875 64.796875 32.078125 64.796875 
z
M 9.8125 72.90625 
L 32.078125 72.90625 
Q 44.34375 72.90625 50.609375 67.359375 
Q 56.890625 61.8125 56.890625 51.125 
Q 56.890625 40.328125 50.609375 34.8125 
Q 44.34375 29.296875 32.078125 29.296875 
L 19.671875 29.296875 
L 19.671875 0 
L 9.8125 0 
z
" id="DejaVuSans-80"/>
      </defs>
      <g transform="translate(188.536298 251.705)rotate(-90)scale(0.1 -0.1)">
       <use xlink:href="#DejaVuSans-68"/>
       <use x="77.001953" xlink:href="#DejaVuSans-114"/>
       <use x="118.115234" xlink:href="#DejaVuSans-117"/>
       <use x="181.494141" xlink:href="#DejaVuSans-103"/>
       <use x="244.970703" xlink:href="#DejaVuSans-32"/>
       <use x="276.757812" xlink:href="#DejaVuSans-80"/>
       <use x="337.013672" xlink:href="#DejaVuSans-111"/>
       <use x="398.195312" xlink:href="#DejaVuSans-115"/>
       <use x="450.294922" xlink:href="#DejaVuSans-115"/>
       <use x="502.394531" xlink:href="#DejaVuSans-101"/>
       <use x="563.917969" xlink:href="#DejaVuSans-115"/>
       <use x="616.017578" xlink:href="#DejaVuSans-115"/>
       <use x="668.117188" xlink:href="#DejaVuSans-105"/>
       <use x="695.900391" xlink:href="#DejaVuSans-111"/>
       <use x="757.082031" xlink:href="#DejaVuSans-110"/>
      </g>
     </g>
    </g>
    <g id="xtick_10">
     <g id="line2d_10">
      <g>
       <use style="stroke:#000000;stroke-width:0.8;" x="200.875385" xlink:href="#mc53c039dff" y="162.66125"/>
      </g>
     </g>
     <g id="text_10">
      <!-- Other Violent -->
      <defs>
       <path d="M 28.609375 0 
L 0.78125 72.90625 
L 11.078125 72.90625 
L 34.1875 11.53125 
L 57.328125 72.90625 
L 67.578125 72.90625 
L 39.796875 0 
z
" id="DejaVuSans-86"/>
      </defs>
      <g transform="translate(203.63476 236.156563)rotate(-90)scale(0.1 -0.1)">
       <use xlink:href="#DejaVuSans-79"/>
       <use x="78.710938" xlink:href="#DejaVuSans-116"/>
       <use x="117.919922" xlink:href="#DejaVuSans-104"/>
       <use x="181.298828" xlink:href="#DejaVuSans-101"/>
       <use x="242.822266" xlink:href="#DejaVuSans-114"/>
       <use x="283.935547" xlink:href="#DejaVuSans-32"/>
       <use x="315.722656" xlink:href="#DejaVuSans-86"/>
       <use x="384.099609" xlink:href="#DejaVuSans-105"/>
       <use x="411.882812" xlink:href="#DejaVuSans-111"/>
       <use x="473.064453" xlink:href="#DejaVuSans-108"/>
       <use x="500.847656" xlink:href="#DejaVuSans-101"/>
       <use x="562.371094" xlink:href="#DejaVuSans-110"/>
       <use x="625.75" xlink:href="#DejaVuSans-116"/>
      </g>
     </g>
    </g>
    <g id="xtick_11">
     <g id="line2d_11">
      <g>
       <use style="stroke:#000000;stroke-width:0.8;" x="215.973846" xlink:href="#mc53c039dff" y="162.66125"/>
      </g>
     </g>
     <g id="text_11">
      <!-- Traffic -->
      <g transform="translate(218.733221 201.303438)rotate(-90)scale(0.1 -0.1)">
       <use xlink:href="#DejaVuSans-84"/>
       <use x="60.865234" xlink:href="#DejaVuSans-114"/>
       <use x="101.978516" xlink:href="#DejaVuSans-97"/>
       <use x="163.257812" xlink:href="#DejaVuSans-102"/>
       <use x="198.462891" xlink:href="#DejaVuSans-102"/>
       <use x="233.667969" xlink:href="#DejaVuSans-105"/>
       <use x="261.451172" xlink:href="#DejaVuSans-99"/>
      </g>
     </g>
    </g>
    <g id="xtick_12">
     <g id="line2d_12">
      <g>
       <use style="stroke:#000000;stroke-width:0.8;" x="231.072308" xlink:href="#mc53c039dff" y="162.66125"/>
      </g>
     </g>
     <g id="text_12">
      <!-- Murder/Manslaughter -->
      <defs>
       <path d="M 9.8125 72.90625 
L 24.515625 72.90625 
L 43.109375 23.296875 
L 61.8125 72.90625 
L 76.515625 72.90625 
L 76.515625 0 
L 66.890625 0 
L 66.890625 64.015625 
L 48.09375 14.015625 
L 38.1875 14.015625 
L 19.390625 64.015625 
L 19.390625 0 
L 9.8125 0 
z
" id="DejaVuSans-77"/>
      </defs>
      <g transform="translate(233.831683 277.134687)rotate(-90)scale(0.1 -0.1)">
       <use xlink:href="#DejaVuSans-77"/>
       <use x="86.279297" xlink:href="#DejaVuSans-117"/>
       <use x="149.658203" xlink:href="#DejaVuSans-114"/>
       <use x="190.755859" xlink:href="#DejaVuSans-100"/>
       <use x="254.232422" xlink:href="#DejaVuSans-101"/>
       <use x="315.755859" xlink:href="#DejaVuSans-114"/>
       <use x="356.869141" xlink:href="#DejaVuSans-47"/>
       <use x="390.560547" xlink:href="#DejaVuSans-77"/>
       <use x="476.839844" xlink:href="#DejaVuSans-97"/>
       <use x="538.119141" xlink:href="#DejaVuSans-110"/>
       <use x="601.498047" xlink:href="#DejaVuSans-115"/>
       <use x="653.597656" xlink:href="#DejaVuSans-108"/>
       <use x="681.380859" xlink:href="#DejaVuSans-97"/>
       <use x="742.660156" xlink:href="#DejaVuSans-117"/>
       <use x="806.039062" xlink:href="#DejaVuSans-103"/>
       <use x="869.515625" xlink:href="#DejaVuSans-104"/>
       <use x="932.894531" xlink:href="#DejaVuSans-116"/>
       <use x="972.103516" xlink:href="#DejaVuSans-101"/>
       <use x="1033.626953" xlink:href="#DejaVuSans-114"/>
      </g>
     </g>
    </g>
    <g id="xtick_13">
     <g id="line2d_13">
      <g>
       <use style="stroke:#000000;stroke-width:0.8;" x="246.170769" xlink:href="#mc53c039dff" y="162.66125"/>
      </g>
     </g>
     <g id="text_13">
      <!-- Weapons -->
      <defs>
       <path d="M 18.109375 8.203125 
L 18.109375 -20.796875 
L 9.078125 -20.796875 
L 9.078125 54.6875 
L 18.109375 54.6875 
L 18.109375 46.390625 
Q 20.953125 51.265625 25.265625 53.625 
Q 29.59375 56 35.59375 56 
Q 45.5625 56 51.78125 48.09375 
Q 58.015625 40.1875 58.015625 27.296875 
Q 58.015625 14.40625 51.78125 6.484375 
Q 45.5625 -1.421875 35.59375 -1.421875 
Q 29.59375 -1.421875 25.265625 0.953125 
Q 20.953125 3.328125 18.109375 8.203125 
z
M 48.6875 27.296875 
Q 48.6875 37.203125 44.609375 42.84375 
Q 40.53125 48.484375 33.40625 48.484375 
Q 26.265625 48.484375 22.1875 42.84375 
Q 18.109375 37.203125 18.109375 27.296875 
Q 18.109375 17.390625 22.1875 11.75 
Q 26.265625 6.109375 33.40625 6.109375 
Q 40.53125 6.109375 44.609375 11.75 
Q 48.6875 17.390625 48.6875 27.296875 
z
" id="DejaVuSans-112"/>
      </defs>
      <g transform="translate(248.930144 215.83625)rotate(-90)scale(0.1 -0.1)">
       <use xlink:href="#DejaVuSans-87"/>
       <use x="98.798828" xlink:href="#DejaVuSans-101"/>
       <use x="160.322266" xlink:href="#DejaVuSans-97"/>
       <use x="221.601562" xlink:href="#DejaVuSans-112"/>
       <use x="285.078125" xlink:href="#DejaVuSans-111"/>
       <use x="346.259766" xlink:href="#DejaVuSans-110"/>
       <use x="409.638672" xlink:href="#DejaVuSans-115"/>
      </g>
     </g>
    </g>
    <g id="xtick_14">
     <g id="line2d_14">
      <g>
       <use style="stroke:#000000;stroke-width:0.8;" x="261.269231" xlink:href="#mc53c039dff" y="162.66125"/>
      </g>
     </g>
     <g id="text_14">
      <!-- Alcohol -->
      <g transform="translate(264.028606 206.131563)rotate(-90)scale(0.1 -0.1)">
       <use xlink:href="#DejaVuSans-65"/>
       <use x="68.408203" xlink:href="#DejaVuSans-108"/>
       <use x="96.191406" xlink:href="#DejaVuSans-99"/>
       <use x="151.171875" xlink:href="#DejaVuSans-111"/>
       <use x="212.353516" xlink:href="#DejaVuSans-104"/>
       <use x="275.732422" xlink:href="#DejaVuSans-111"/>
       <use x="336.914062" xlink:href="#DejaVuSans-108"/>
      </g>
     </g>
    </g>
    <g id="xtick_15">
     <g id="line2d_15">
      <g>
       <use style="stroke:#000000;stroke-width:0.8;" x="276.367692" xlink:href="#mc53c039dff" y="162.66125"/>
      </g>
     </g>
     <g id="text_15">
      <!-- Vandalism -->
      <g transform="translate(279.127067 221.939375)rotate(-90)scale(0.1 -0.1)">
       <use xlink:href="#DejaVuSans-86"/>
       <use x="68.298828" xlink:href="#DejaVuSans-97"/>
       <use x="129.578125" xlink:href="#DejaVuSans-110"/>
       <use x="192.957031" xlink:href="#DejaVuSans-100"/>
       <use x="256.433594" xlink:href="#DejaVuSans-97"/>
       <use x="317.712891" xlink:href="#DejaVuSans-108"/>
       <use x="345.496094" xlink:href="#DejaVuSans-105"/>
       <use x="373.279297" xlink:href="#DejaVuSans-115"/>
       <use x="425.378906" xlink:href="#DejaVuSans-109"/>
      </g>
     </g>
    </g>
    <g id="xtick_16">
     <g id="line2d_16">
      <g>
       <use style="stroke:#000000;stroke-width:0.8;" x="291.466154" xlink:href="#mc53c039dff" y="162.66125"/>
      </g>
     </g>
     <g id="text_16">
      <!-- Robbery -->
      <defs>
       <path d="M 44.390625 34.1875 
Q 47.5625 33.109375 50.5625 29.59375 
Q 53.5625 26.078125 56.59375 19.921875 
L 66.609375 0 
L 56 0 
L 46.6875 18.703125 
Q 43.0625 26.03125 39.671875 28.421875 
Q 36.28125 30.8125 30.421875 30.8125 
L 19.671875 30.8125 
L 19.671875 0 
L 9.8125 0 
L 9.8125 72.90625 
L 32.078125 72.90625 
Q 44.578125 72.90625 50.734375 67.671875 
Q 56.890625 62.453125 56.890625 51.90625 
Q 56.890625 45.015625 53.6875 40.46875 
Q 50.484375 35.9375 44.390625 34.1875 
z
M 19.671875 64.796875 
L 19.671875 38.921875 
L 32.078125 38.921875 
Q 39.203125 38.921875 42.84375 42.21875 
Q 46.484375 45.515625 46.484375 51.90625 
Q 46.484375 58.296875 42.84375 61.546875 
Q 39.203125 64.796875 32.078125 64.796875 
z
" id="DejaVuSans-82"/>
       <path d="M 48.6875 27.296875 
Q 48.6875 37.203125 44.609375 42.84375 
Q 40.53125 48.484375 33.40625 48.484375 
Q 26.265625 48.484375 22.1875 42.84375 
Q 18.109375 37.203125 18.109375 27.296875 
Q 18.109375 17.390625 22.1875 11.75 
Q 26.265625 6.109375 33.40625 6.109375 
Q 40.53125 6.109375 44.609375 11.75 
Q 48.6875 17.390625 48.6875 27.296875 
z
M 18.109375 46.390625 
Q 20.953125 51.265625 25.265625 53.625 
Q 29.59375 56 35.59375 56 
Q 45.5625 56 51.78125 48.09375 
Q 58.015625 40.1875 58.015625 27.296875 
Q 58.015625 14.40625 51.78125 6.484375 
Q 45.5625 -1.421875 35.59375 -1.421875 
Q 29.59375 -1.421875 25.265625 0.953125 
Q 20.953125 3.328125 18.109375 8.203125 
L 18.109375 0 
L 9.078125 0 
L 9.078125 75.984375 
L 18.109375 75.984375 
z
" id="DejaVuSans-98"/>
      </defs>
      <g transform="translate(294.225529 211.601875)rotate(-90)scale(0.1 -0.1)">
       <use xlink:href="#DejaVuSans-82"/>
       <use x="69.419922" xlink:href="#DejaVuSans-111"/>
       <use x="130.601562" xlink:href="#DejaVuSans-98"/>
       <use x="194.078125" xlink:href="#DejaVuSans-98"/>
       <use x="257.554688" xlink:href="#DejaVuSans-101"/>
       <use x="319.078125" xlink:href="#DejaVuSans-114"/>
       <use x="360.191406" xlink:href="#DejaVuSans-121"/>
      </g>
     </g>
    </g>
    <g id="xtick_17">
     <g id="line2d_17">
      <g>
       <use style="stroke:#000000;stroke-width:0.8;" x="306.564615" xlink:href="#mc53c039dff" y="162.66125"/>
      </g>
     </g>
     <g id="text_17">
      <!-- Other Public Order -->
      <g transform="translate(309.32399 262.77375)rotate(-90)scale(0.1 -0.1)">
       <use xlink:href="#DejaVuSans-79"/>
       <use x="78.710938" xlink:href="#DejaVuSans-116"/>
       <use x="117.919922" xlink:href="#DejaVuSans-104"/>
       <use x="181.298828" xlink:href="#DejaVuSans-101"/>
       <use x="242.822266" xlink:href="#DejaVuSans-114"/>
       <use x="283.935547" xlink:href="#DejaVuSans-32"/>
       <use x="315.722656" xlink:href="#DejaVuSans-80"/>
       <use x="376.009766" xlink:href="#DejaVuSans-117"/>
       <use x="439.388672" xlink:href="#DejaVuSans-98"/>
       <use x="502.865234" xlink:href="#DejaVuSans-108"/>
       <use x="530.648438" xlink:href="#DejaVuSans-105"/>
       <use x="558.431641" xlink:href="#DejaVuSans-99"/>
       <use x="613.412109" xlink:href="#DejaVuSans-32"/>
       <use x="645.199219" xlink:href="#DejaVuSans-79"/>
       <use x="723.910156" xlink:href="#DejaVuSans-114"/>
       <use x="765.007812" xlink:href="#DejaVuSans-100"/>
       <use x="828.484375" xlink:href="#DejaVuSans-101"/>
       <use x="890.007812" xlink:href="#DejaVuSans-114"/>
      </g>
     </g>
    </g>
    <g id="xtick_18">
     <g id="line2d_18">
      <g>
       <use style="stroke:#000000;stroke-width:0.8;" x="321.663077" xlink:href="#mc53c039dff" y="162.66125"/>
      </g>
     </g>
     <g id="text_18">
      <!-- Other Drug -->
      <g transform="translate(324.422452 225.73)rotate(-90)scale(0.1 -0.1)">
       <use xlink:href="#DejaVuSans-79"/>
       <use x="78.710938" xlink:href="#DejaVuSans-116"/>
       <use x="117.919922" xlink:href="#DejaVuSans-104"/>
       <use x="181.298828" xlink:href="#DejaVuSans-101"/>
       <use x="242.822266" xlink:href="#DejaVuSans-114"/>
       <use x="283.935547" xlink:href="#DejaVuSans-32"/>
       <use x="315.722656" xlink:href="#DejaVuSans-68"/>
       <use x="392.724609" xlink:href="#DejaVuSans-114"/>
       <use x="433.837891" xlink:href="#DejaVuSans-117"/>
       <use x="497.216797" xlink:href="#DejaVuSans-103"/>
      </g>
     </g>
    </g>
    <g id="xtick_19">
     <g id="line2d_19">
      <g>
       <use style="stroke:#000000;stroke-width:0.8;" x="336.761538" xlink:href="#mc53c039dff" y="162.66125"/>
      </g>
     </g>
     <g id="text_19">
      <!-- Arson -->
      <g transform="translate(339.520913 198.278437)rotate(-90)scale(0.1 -0.1)">
       <use xlink:href="#DejaVuSans-65"/>
       <use x="68.408203" xlink:href="#DejaVuSans-114"/>
       <use x="109.521484" xlink:href="#DejaVuSans-115"/>
       <use x="161.621094" xlink:href="#DejaVuSans-111"/>
       <use x="222.802734" xlink:href="#DejaVuSans-110"/>
      </g>
     </g>
    </g>
    <g id="xtick_20">
     <g id="line2d_20">
      <g>
       <use style="stroke:#000000;stroke-width:0.8;" x="351.86" xlink:href="#mc53c039dff" y="162.66125"/>
      </g>
     </g>
     <g id="text_20">
      <!-- Sex Offender Registry/Residency -->
      <g transform="translate(354.619375 334.540938)rotate(-90)scale(0.1 -0.1)">
       <use xlink:href="#DejaVuSans-83"/>
       <use x="63.476562" xlink:href="#DejaVuSans-101"/>
       <use x="124.984375" xlink:href="#DejaVuSans-120"/>
       <use x="184.164062" xlink:href="#DejaVuSans-32"/>
       <use x="215.951172" xlink:href="#DejaVuSans-79"/>
       <use x="294.662109" xlink:href="#DejaVuSans-102"/>
       <use x="329.867188" xlink:href="#DejaVuSans-102"/>
       <use x="365.072266" xlink:href="#DejaVuSans-101"/>
       <use x="426.595703" xlink:href="#DejaVuSans-110"/>
       <use x="489.974609" xlink:href="#DejaVuSans-100"/>
       <use x="553.451172" xlink:href="#DejaVuSans-101"/>
       <use x="614.974609" xlink:href="#DejaVuSans-114"/>
       <use x="656.087891" xlink:href="#DejaVuSans-32"/>
       <use x="687.875" xlink:href="#DejaVuSans-82"/>
       <use x="757.294922" xlink:href="#DejaVuSans-101"/>
       <use x="818.818359" xlink:href="#DejaVuSans-103"/>
       <use x="882.294922" xlink:href="#DejaVuSans-105"/>
       <use x="910.078125" xlink:href="#DejaVuSans-115"/>
       <use x="962.177734" xlink:href="#DejaVuSans-116"/>
       <use x="1001.386719" xlink:href="#DejaVuSans-114"/>
       <use x="1042.5" xlink:href="#DejaVuSans-121"/>
       <use x="1101.679688" xlink:href="#DejaVuSans-47"/>
       <use x="1135.371094" xlink:href="#DejaVuSans-82"/>
       <use x="1204.791016" xlink:href="#DejaVuSans-101"/>
       <use x="1266.314453" xlink:href="#DejaVuSans-115"/>
       <use x="1318.414062" xlink:href="#DejaVuSans-105"/>
       <use x="1346.197266" xlink:href="#DejaVuSans-100"/>
       <use x="1409.673828" xlink:href="#DejaVuSans-101"/>
       <use x="1471.197266" xlink:href="#DejaVuSans-110"/>
       <use x="1534.576172" xlink:href="#DejaVuSans-99"/>
       <use x="1589.556641" xlink:href="#DejaVuSans-121"/>
      </g>
     </g>
    </g>
    <g id="xtick_21">
     <g id="line2d_21">
      <g>
       <use style="stroke:#000000;stroke-width:0.8;" x="366.958462" xlink:href="#mc53c039dff" y="162.66125"/>
      </g>
     </g>
     <g id="text_21">
      <!-- Flight/Escape -->
      <defs>
       <path d="M 9.8125 72.90625 
L 55.90625 72.90625 
L 55.90625 64.59375 
L 19.671875 64.59375 
L 19.671875 43.015625 
L 54.390625 43.015625 
L 54.390625 34.71875 
L 19.671875 34.71875 
L 19.671875 8.296875 
L 56.78125 8.296875 
L 56.78125 0 
L 9.8125 0 
z
" id="DejaVuSans-69"/>
      </defs>
      <g transform="translate(369.717837 236.600313)rotate(-90)scale(0.1 -0.1)">
       <use xlink:href="#DejaVuSans-70"/>
       <use x="57.519531" xlink:href="#DejaVuSans-108"/>
       <use x="85.302734" xlink:href="#DejaVuSans-105"/>
       <use x="113.085938" xlink:href="#DejaVuSans-103"/>
       <use x="176.5625" xlink:href="#DejaVuSans-104"/>
       <use x="239.941406" xlink:href="#DejaVuSans-116"/>
       <use x="279.150391" xlink:href="#DejaVuSans-47"/>
       <use x="312.841797" xlink:href="#DejaVuSans-69"/>
       <use x="376.025391" xlink:href="#DejaVuSans-115"/>
       <use x="428.125" xlink:href="#DejaVuSans-99"/>
       <use x="483.105469" xlink:href="#DejaVuSans-97"/>
       <use x="544.384766" xlink:href="#DejaVuSans-112"/>
       <use x="607.861328" xlink:href="#DejaVuSans-101"/>
      </g>
     </g>
    </g>
    <g id="xtick_22">
     <g id="line2d_22">
      <g>
       <use style="stroke:#000000;stroke-width:0.8;" x="382.056923" xlink:href="#mc53c039dff" y="162.66125"/>
      </g>
     </g>
     <g id="text_22">
      <!-- Kidnap -->
      <defs>
       <path d="M 9.8125 72.90625 
L 19.671875 72.90625 
L 19.671875 42.09375 
L 52.390625 72.90625 
L 65.09375 72.90625 
L 28.90625 38.921875 
L 67.671875 0 
L 54.6875 0 
L 19.671875 35.109375 
L 19.671875 0 
L 9.8125 0 
z
" id="DejaVuSans-75"/>
      </defs>
      <g transform="translate(384.816298 204.159687)rotate(-90)scale(0.1 -0.1)">
       <use xlink:href="#DejaVuSans-75"/>
       <use x="65.576172" xlink:href="#DejaVuSans-105"/>
       <use x="93.359375" xlink:href="#DejaVuSans-100"/>
       <use x="156.835938" xlink:href="#DejaVuSans-110"/>
       <use x="220.214844" xlink:href="#DejaVuSans-97"/>
       <use x="281.494141" xlink:href="#DejaVuSans-112"/>
      </g>
     </g>
    </g>
    <g id="xtick_23">
     <g id="line2d_23">
      <g>
       <use style="stroke:#000000;stroke-width:0.8;" x="397.155385" xlink:href="#mc53c039dff" y="162.66125"/>
      </g>
     </g>
     <g id="text_23">
      <!-- Special Sentence Revocation -->
      <defs>
       <path d="M 2.984375 54.6875 
L 12.5 54.6875 
L 29.59375 8.796875 
L 46.6875 54.6875 
L 56.203125 54.6875 
L 35.6875 0 
L 23.484375 0 
z
" id="DejaVuSans-118"/>
      </defs>
      <g transform="translate(399.91476 314.865937)rotate(-90)scale(0.1 -0.1)">
       <use xlink:href="#DejaVuSans-83"/>
       <use x="63.476562" xlink:href="#DejaVuSans-112"/>
       <use x="126.953125" xlink:href="#DejaVuSans-101"/>
       <use x="188.476562" xlink:href="#DejaVuSans-99"/>
       <use x="243.457031" xlink:href="#DejaVuSans-105"/>
       <use x="271.240234" xlink:href="#DejaVuSans-97"/>
       <use x="332.519531" xlink:href="#DejaVuSans-108"/>
       <use x="360.302734" xlink:href="#DejaVuSans-32"/>
       <use x="392.089844" xlink:href="#DejaVuSans-83"/>
       <use x="455.566406" xlink:href="#DejaVuSans-101"/>
       <use x="517.089844" xlink:href="#DejaVuSans-110"/>
       <use x="580.46875" xlink:href="#DejaVuSans-116"/>
       <use x="619.677734" xlink:href="#DejaVuSans-101"/>
       <use x="681.201172" xlink:href="#DejaVuSans-110"/>
       <use x="744.580078" xlink:href="#DejaVuSans-99"/>
       <use x="799.560547" xlink:href="#DejaVuSans-101"/>
       <use x="861.083984" xlink:href="#DejaVuSans-32"/>
       <use x="892.871094" xlink:href="#DejaVuSans-82"/>
       <use x="962.291016" xlink:href="#DejaVuSans-101"/>
       <use x="1023.814453" xlink:href="#DejaVuSans-118"/>
       <use x="1082.994141" xlink:href="#DejaVuSans-111"/>
       <use x="1144.175781" xlink:href="#DejaVuSans-99"/>
       <use x="1199.15625" xlink:href="#DejaVuSans-97"/>
       <use x="1260.435547" xlink:href="#DejaVuSans-116"/>
       <use x="1299.644531" xlink:href="#DejaVuSans-105"/>
       <use x="1327.427734" xlink:href="#DejaVuSans-111"/>
       <use x="1388.609375" xlink:href="#DejaVuSans-110"/>
      </g>
     </g>
    </g>
    <g id="xtick_24">
     <g id="line2d_24">
      <g>
       <use style="stroke:#000000;stroke-width:0.8;" x="412.253846" xlink:href="#mc53c039dff" y="162.66125"/>
      </g>
     </g>
     <g id="text_24">
      <!-- Prostitution/Pimping -->
      <g transform="translate(415.013221 270.962812)rotate(-90)scale(0.1 -0.1)">
       <use xlink:href="#DejaVuSans-80"/>
       <use x="60.287109" xlink:href="#DejaVuSans-114"/>
       <use x="101.369141" xlink:href="#DejaVuSans-111"/>
       <use x="162.550781" xlink:href="#DejaVuSans-115"/>
       <use x="214.650391" xlink:href="#DejaVuSans-116"/>
       <use x="253.859375" xlink:href="#DejaVuSans-105"/>
       <use x="281.642578" xlink:href="#DejaVuSans-116"/>
       <use x="320.851562" xlink:href="#DejaVuSans-117"/>
       <use x="384.230469" xlink:href="#DejaVuSans-116"/>
       <use x="423.439453" xlink:href="#DejaVuSans-105"/>
       <use x="451.222656" xlink:href="#DejaVuSans-111"/>
       <use x="512.404297" xlink:href="#DejaVuSans-110"/>
       <use x="575.783203" xlink:href="#DejaVuSans-47"/>
       <use x="609.474609" xlink:href="#DejaVuSans-80"/>
       <use x="669.746094" xlink:href="#DejaVuSans-105"/>
       <use x="697.529297" xlink:href="#DejaVuSans-109"/>
       <use x="794.941406" xlink:href="#DejaVuSans-112"/>
       <use x="858.417969" xlink:href="#DejaVuSans-105"/>
       <use x="886.201172" xlink:href="#DejaVuSans-110"/>
       <use x="949.580078" xlink:href="#DejaVuSans-103"/>
      </g>
     </g>
    </g>
    <g id="xtick_25">
     <g id="line2d_25">
      <g>
       <use style="stroke:#000000;stroke-width:0.8;" x="427.352308" xlink:href="#mc53c039dff" y="162.66125"/>
      </g>
     </g>
     <g id="text_25">
      <!-- Stolen Property -->
      <g transform="translate(430.111683 247.201875)rotate(-90)scale(0.1 -0.1)">
       <use xlink:href="#DejaVuSans-83"/>
       <use x="63.476562" xlink:href="#DejaVuSans-116"/>
       <use x="102.685547" xlink:href="#DejaVuSans-111"/>
       <use x="163.867188" xlink:href="#DejaVuSans-108"/>
       <use x="191.650391" xlink:href="#DejaVuSans-101"/>
       <use x="253.173828" xlink:href="#DejaVuSans-110"/>
       <use x="316.552734" xlink:href="#DejaVuSans-32"/>
       <use x="348.339844" xlink:href="#DejaVuSans-80"/>
       <use x="408.626953" xlink:href="#DejaVuSans-114"/>
       <use x="449.708984" xlink:href="#DejaVuSans-111"/>
       <use x="510.890625" xlink:href="#DejaVuSans-112"/>
       <use x="574.367188" xlink:href="#DejaVuSans-101"/>
       <use x="635.890625" xlink:href="#DejaVuSans-114"/>
       <use x="677.003906" xlink:href="#DejaVuSans-116"/>
       <use x="716.212891" xlink:href="#DejaVuSans-121"/>
      </g>
     </g>
    </g>
    <g id="xtick_26">
     <g id="line2d_26">
      <g>
       <use style="stroke:#000000;stroke-width:0.8;" x="442.450769" xlink:href="#mc53c039dff" y="162.66125"/>
      </g>
     </g>
     <g id="text_26">
      <!-- Animals -->
      <g transform="translate(445.210144 209.47375)rotate(-90)scale(0.1 -0.1)">
       <use xlink:href="#DejaVuSans-65"/>
       <use x="68.408203" xlink:href="#DejaVuSans-110"/>
       <use x="131.787109" xlink:href="#DejaVuSans-105"/>
       <use x="159.570312" xlink:href="#DejaVuSans-109"/>
       <use x="256.982422" xlink:href="#DejaVuSans-97"/>
       <use x="318.261719" xlink:href="#DejaVuSans-108"/>
       <use x="346.044922" xlink:href="#DejaVuSans-115"/>
      </g>
     </g>
    </g>
   </g>
   <g id="matplotlib.axis_2">
    <g id="ytick_1">
     <g id="line2d_27">
      <defs>
       <path d="M 0 0 
L -3.5 0 
" id="mbe279ca317" style="stroke:#000000;stroke-width:0.8;"/>
      </defs>
      <g>
       <use style="stroke:#000000;stroke-width:0.8;" x="57.44" xlink:href="#mbe279ca317" y="162.66125"/>
      </g>
     </g>
     <g id="text_27">
      <!-- 0 -->
      <defs>
       <path d="M 31.78125 66.40625 
Q 24.171875 66.40625 20.328125 58.90625 
Q 16.5 51.421875 16.5 36.375 
Q 16.5 21.390625 20.328125 13.890625 
Q 24.171875 6.390625 31.78125 6.390625 
Q 39.453125 6.390625 43.28125 13.890625 
Q 47.125 21.390625 47.125 36.375 
Q 47.125 51.421875 43.28125 58.90625 
Q 39.453125 66.40625 31.78125 66.40625 
z
M 31.78125 74.21875 
Q 44.046875 74.21875 50.515625 64.515625 
Q 56.984375 54.828125 56.984375 36.375 
Q 56.984375 17.96875 50.515625 8.265625 
Q 44.046875 -1.421875 31.78125 -1.421875 
Q 19.53125 -1.421875 13.0625 8.265625 
Q 6.59375 17.96875 6.59375 36.375 
Q 6.59375 54.828125 13.0625 64.515625 
Q 19.53125 74.21875 31.78125 74.21875 
z
" id="DejaVuSans-48"/>
      </defs>
      <g transform="translate(44.0775 166.460469)scale(0.1 -0.1)">
       <use xlink:href="#DejaVuSans-48"/>
      </g>
     </g>
    </g>
    <g id="ytick_2">
     <g id="line2d_28">
      <g>
       <use style="stroke:#000000;stroke-width:0.8;" x="57.44" xlink:href="#mbe279ca317" y="122.611592"/>
      </g>
     </g>
     <g id="text_28">
      <!-- 2000 -->
      <defs>
       <path d="M 19.1875 8.296875 
L 53.609375 8.296875 
L 53.609375 0 
L 7.328125 0 
L 7.328125 8.296875 
Q 12.9375 14.109375 22.625 23.890625 
Q 32.328125 33.6875 34.8125 36.53125 
Q 39.546875 41.84375 41.421875 45.53125 
Q 43.3125 49.21875 43.3125 52.78125 
Q 43.3125 58.59375 39.234375 62.25 
Q 35.15625 65.921875 28.609375 65.921875 
Q 23.96875 65.921875 18.8125 64.3125 
Q 13.671875 62.703125 7.8125 59.421875 
L 7.8125 69.390625 
Q 13.765625 71.78125 18.9375 73 
Q 24.125 74.21875 28.421875 74.21875 
Q 39.75 74.21875 46.484375 68.546875 
Q 53.21875 62.890625 53.21875 53.421875 
Q 53.21875 48.921875 51.53125 44.890625 
Q 49.859375 40.875 45.40625 35.40625 
Q 44.1875 33.984375 37.640625 27.21875 
Q 31.109375 20.453125 19.1875 8.296875 
z
" id="DejaVuSans-50"/>
      </defs>
      <g transform="translate(24.99 126.410811)scale(0.1 -0.1)">
       <use xlink:href="#DejaVuSans-50"/>
       <use x="63.623047" xlink:href="#DejaVuSans-48"/>
       <use x="127.246094" xlink:href="#DejaVuSans-48"/>
       <use x="190.869141" xlink:href="#DejaVuSans-48"/>
      </g>
     </g>
    </g>
    <g id="ytick_3">
     <g id="line2d_29">
      <g>
       <use style="stroke:#000000;stroke-width:0.8;" x="57.44" xlink:href="#mbe279ca317" y="82.561934"/>
      </g>
     </g>
     <g id="text_29">
      <!-- 4000 -->
      <defs>
       <path d="M 37.796875 64.3125 
L 12.890625 25.390625 
L 37.796875 25.390625 
z
M 35.203125 72.90625 
L 47.609375 72.90625 
L 47.609375 25.390625 
L 58.015625 25.390625 
L 58.015625 17.1875 
L 47.609375 17.1875 
L 47.609375 0 
L 37.796875 0 
L 37.796875 17.1875 
L 4.890625 17.1875 
L 4.890625 26.703125 
z
" id="DejaVuSans-52"/>
      </defs>
      <g transform="translate(24.99 86.361152)scale(0.1 -0.1)">
       <use xlink:href="#DejaVuSans-52"/>
       <use x="63.623047" xlink:href="#DejaVuSans-48"/>
       <use x="127.246094" xlink:href="#DejaVuSans-48"/>
       <use x="190.869141" xlink:href="#DejaVuSans-48"/>
      </g>
     </g>
    </g>
    <g id="ytick_4">
     <g id="line2d_30">
      <g>
       <use style="stroke:#000000;stroke-width:0.8;" x="57.44" xlink:href="#mbe279ca317" y="42.512275"/>
      </g>
     </g>
     <g id="text_30">
      <!-- 6000 -->
      <defs>
       <path d="M 33.015625 40.375 
Q 26.375 40.375 22.484375 35.828125 
Q 18.609375 31.296875 18.609375 23.390625 
Q 18.609375 15.53125 22.484375 10.953125 
Q 26.375 6.390625 33.015625 6.390625 
Q 39.65625 6.390625 43.53125 10.953125 
Q 47.40625 15.53125 47.40625 23.390625 
Q 47.40625 31.296875 43.53125 35.828125 
Q 39.65625 40.375 33.015625 40.375 
z
M 52.59375 71.296875 
L 52.59375 62.3125 
Q 48.875 64.0625 45.09375 64.984375 
Q 41.3125 65.921875 37.59375 65.921875 
Q 27.828125 65.921875 22.671875 59.328125 
Q 17.53125 52.734375 16.796875 39.40625 
Q 19.671875 43.65625 24.015625 45.921875 
Q 28.375 48.1875 33.59375 48.1875 
Q 44.578125 48.1875 50.953125 41.515625 
Q 57.328125 34.859375 57.328125 23.390625 
Q 57.328125 12.15625 50.6875 5.359375 
Q 44.046875 -1.421875 33.015625 -1.421875 
Q 20.359375 -1.421875 13.671875 8.265625 
Q 6.984375 17.96875 6.984375 36.375 
Q 6.984375 53.65625 15.1875 63.9375 
Q 23.390625 74.21875 37.203125 74.21875 
Q 40.921875 74.21875 44.703125 73.484375 
Q 48.484375 72.75 52.59375 71.296875 
z
" id="DejaVuSans-54"/>
      </defs>
      <g transform="translate(24.99 46.311494)scale(0.1 -0.1)">
       <use xlink:href="#DejaVuSans-54"/>
       <use x="63.623047" xlink:href="#DejaVuSans-48"/>
       <use x="127.246094" xlink:href="#DejaVuSans-48"/>
       <use x="190.869141" xlink:href="#DejaVuSans-48"/>
      </g>
     </g>
    </g>
    <g id="text_31">
     <!-- Offense Subtype -->
     <g transform="translate(18.910312 136.07)rotate(-90)scale(0.1 -0.1)">
      <use xlink:href="#DejaVuSans-79"/>
      <use x="78.710938" xlink:href="#DejaVuSans-102"/>
      <use x="113.916016" xlink:href="#DejaVuSans-102"/>
      <use x="149.121094" xlink:href="#DejaVuSans-101"/>
      <use x="210.644531" xlink:href="#DejaVuSans-110"/>
      <use x="274.023438" xlink:href="#DejaVuSans-115"/>
      <use x="326.123047" xlink:href="#DejaVuSans-101"/>
      <use x="387.646484" xlink:href="#DejaVuSans-32"/>
      <use x="419.433594" xlink:href="#DejaVuSans-83"/>
      <use x="482.910156" xlink:href="#DejaVuSans-117"/>
      <use x="546.289062" xlink:href="#DejaVuSans-98"/>
      <use x="609.765625" xlink:href="#DejaVuSans-116"/>
      <use x="648.974609" xlink:href="#DejaVuSans-121"/>
      <use x="708.154297" xlink:href="#DejaVuSans-112"/>
      <use x="771.630859" xlink:href="#DejaVuSans-101"/>
     </g>
    </g>
   </g>
   <g id="line2d_31">
    <path clip-path="url(#p599890e99b)" d="M 0 0 
" style="fill:none;stroke:#424242;stroke-linecap:square;stroke-width:2.7;"/>
   </g>
   <g id="line2d_32">
    <path clip-path="url(#p599890e99b)" d="M 0 0 
" style="fill:none;stroke:#424242;stroke-linecap:square;stroke-width:2.7;"/>
   </g>
   <g id="line2d_33">
    <path clip-path="url(#p599890e99b)" d="M 0 0 
" style="fill:none;stroke:#424242;stroke-linecap:square;stroke-width:2.7;"/>
   </g>
   <g id="line2d_34">
    <path clip-path="url(#p599890e99b)" d="M 0 0 
" style="fill:none;stroke:#424242;stroke-linecap:square;stroke-width:2.7;"/>
   </g>
   <g id="line2d_35">
    <path clip-path="url(#p599890e99b)" d="M 0 0 
" style="fill:none;stroke:#424242;stroke-linecap:square;stroke-width:2.7;"/>
   </g>
   <g id="line2d_36">
    <path clip-path="url(#p599890e99b)" d="M 0 0 
" style="fill:none;stroke:#424242;stroke-linecap:square;stroke-width:2.7;"/>
   </g>
   <g id="line2d_37">
    <path clip-path="url(#p599890e99b)" d="M 0 0 
" style="fill:none;stroke:#424242;stroke-linecap:square;stroke-width:2.7;"/>
   </g>
   <g id="line2d_38">
    <path clip-path="url(#p599890e99b)" d="M 0 0 
" style="fill:none;stroke:#424242;stroke-linecap:square;stroke-width:2.7;"/>
   </g>
   <g id="line2d_39">
    <path clip-path="url(#p599890e99b)" d="M 0 0 
" style="fill:none;stroke:#424242;stroke-linecap:square;stroke-width:2.7;"/>
   </g>
   <g id="line2d_40">
    <path clip-path="url(#p599890e99b)" d="M 0 0 
" style="fill:none;stroke:#424242;stroke-linecap:square;stroke-width:2.7;"/>
   </g>
   <g id="line2d_41">
    <path clip-path="url(#p599890e99b)" d="M 0 0 
" style="fill:none;stroke:#424242;stroke-linecap:square;stroke-width:2.7;"/>
   </g>
   <g id="line2d_42">
    <path clip-path="url(#p599890e99b)" d="M 0 0 
" style="fill:none;stroke:#424242;stroke-linecap:square;stroke-width:2.7;"/>
   </g>
   <g id="line2d_43">
    <path clip-path="url(#p599890e99b)" d="M 0 0 
" style="fill:none;stroke:#424242;stroke-linecap:square;stroke-width:2.7;"/>
   </g>
   <g id="line2d_44">
    <path clip-path="url(#p599890e99b)" d="M 0 0 
" style="fill:none;stroke:#424242;stroke-linecap:square;stroke-width:2.7;"/>
   </g>
   <g id="line2d_45">
    <path clip-path="url(#p599890e99b)" d="M 0 0 
" style="fill:none;stroke:#424242;stroke-linecap:square;stroke-width:2.7;"/>
   </g>
   <g id="line2d_46">
    <path clip-path="url(#p599890e99b)" d="M 0 0 
" style="fill:none;stroke:#424242;stroke-linecap:square;stroke-width:2.7;"/>
   </g>
   <g id="line2d_47">
    <path clip-path="url(#p599890e99b)" d="M 0 0 
" style="fill:none;stroke:#424242;stroke-linecap:square;stroke-width:2.7;"/>
   </g>
   <g id="line2d_48">
    <path clip-path="url(#p599890e99b)" d="M 0 0 
" style="fill:none;stroke:#424242;stroke-linecap:square;stroke-width:2.7;"/>
   </g>
   <g id="line2d_49">
    <path clip-path="url(#p599890e99b)" d="M 0 0 
" style="fill:none;stroke:#424242;stroke-linecap:square;stroke-width:2.7;"/>
   </g>
   <g id="line2d_50">
    <path clip-path="url(#p599890e99b)" d="M 0 0 
" style="fill:none;stroke:#424242;stroke-linecap:square;stroke-width:2.7;"/>
   </g>
   <g id="line2d_51">
    <path clip-path="url(#p599890e99b)" d="M 0 0 
" style="fill:none;stroke:#424242;stroke-linecap:square;stroke-width:2.7;"/>
   </g>
   <g id="line2d_52">
    <path clip-path="url(#p599890e99b)" d="M 0 0 
" style="fill:none;stroke:#424242;stroke-linecap:square;stroke-width:2.7;"/>
   </g>
   <g id="line2d_53">
    <path clip-path="url(#p599890e99b)" d="M 0 0 
" style="fill:none;stroke:#424242;stroke-linecap:square;stroke-width:2.7;"/>
   </g>
   <g id="line2d_54">
    <path clip-path="url(#p599890e99b)" d="M 0 0 
" style="fill:none;stroke:#424242;stroke-linecap:square;stroke-width:2.7;"/>
   </g>
   <g id="line2d_55">
    <path clip-path="url(#p599890e99b)" d="M 0 0 
" style="fill:none;stroke:#424242;stroke-linecap:square;stroke-width:2.7;"/>
   </g>
   <g id="line2d_56">
    <path clip-path="url(#p599890e99b)" d="M 0 0 
" style="fill:none;stroke:#424242;stroke-linecap:square;stroke-width:2.7;"/>
   </g>
   <g id="patch_29">
    <path d="M 57.44 162.66125 
L 57.44 26.16 
" style="fill:none;stroke:#000000;stroke-linecap:square;stroke-linejoin:miter;stroke-width:0.8;"/>
   </g>
   <g id="patch_30">
    <path d="M 450 162.66125 
L 450 26.16 
" style="fill:none;stroke:#000000;stroke-linecap:square;stroke-linejoin:miter;stroke-width:0.8;"/>
   </g>
   <g id="patch_31">
    <path d="M 57.44 162.66125 
L 450 162.66125 
" style="fill:none;stroke:#000000;stroke-linecap:square;stroke-linejoin:miter;stroke-width:0.8;"/>
   </g>
   <g id="patch_32">
    <path d="M 57.44 26.16 
L 450 26.16 
" style="fill:none;stroke:#000000;stroke-linecap:square;stroke-linejoin:miter;stroke-width:0.8;"/>
   </g>
   <g id="text_32">
    <!-- Counts of Different Offense Subtypes Types -->
    <g transform="translate(121.905625 20.16)scale(0.12 -0.12)">
     <use xlink:href="#DejaVuSans-67"/>
     <use x="69.824219" xlink:href="#DejaVuSans-111"/>
     <use x="131.005859" xlink:href="#DejaVuSans-117"/>
     <use x="194.384766" xlink:href="#DejaVuSans-110"/>
     <use x="257.763672" xlink:href="#DejaVuSans-116"/>
     <use x="296.972656" xlink:href="#DejaVuSans-115"/>
     <use x="349.072266" xlink:href="#DejaVuSans-32"/>
     <use x="380.859375" xlink:href="#DejaVuSans-111"/>
     <use x="442.041016" xlink:href="#DejaVuSans-102"/>
     <use x="477.246094" xlink:href="#DejaVuSans-32"/>
     <use x="509.033203" xlink:href="#DejaVuSans-68"/>
     <use x="586.035156" xlink:href="#DejaVuSans-105"/>
     <use x="613.818359" xlink:href="#DejaVuSans-102"/>
     <use x="649.023438" xlink:href="#DejaVuSans-102"/>
     <use x="684.228516" xlink:href="#DejaVuSans-101"/>
     <use x="745.751953" xlink:href="#DejaVuSans-114"/>
     <use x="786.833984" xlink:href="#DejaVuSans-101"/>
     <use x="848.357422" xlink:href="#DejaVuSans-110"/>
     <use x="911.736328" xlink:href="#DejaVuSans-116"/>
     <use x="950.945312" xlink:href="#DejaVuSans-32"/>
     <use x="982.732422" xlink:href="#DejaVuSans-79"/>
     <use x="1061.443359" xlink:href="#DejaVuSans-102"/>
     <use x="1096.648438" xlink:href="#DejaVuSans-102"/>
     <use x="1131.853516" xlink:href="#DejaVuSans-101"/>
     <use x="1193.376953" xlink:href="#DejaVuSans-110"/>
     <use x="1256.755859" xlink:href="#DejaVuSans-115"/>
     <use x="1308.855469" xlink:href="#DejaVuSans-101"/>
     <use x="1370.378906" xlink:href="#DejaVuSans-32"/>
     <use x="1402.166016" xlink:href="#DejaVuSans-83"/>
     <use x="1465.642578" xlink:href="#DejaVuSans-117"/>
     <use x="1529.021484" xlink:href="#DejaVuSans-98"/>
     <use x="1592.498047" xlink:href="#DejaVuSans-116"/>
     <use x="1631.707031" xlink:href="#DejaVuSans-121"/>
     <use x="1690.886719" xlink:href="#DejaVuSans-112"/>
     <use x="1754.363281" xlink:href="#DejaVuSans-101"/>
     <use x="1815.886719" xlink:href="#DejaVuSans-115"/>
     <use x="1867.986328" xlink:href="#DejaVuSans-32"/>
     <use x="1899.773438" xlink:href="#DejaVuSans-84"/>
     <use x="1960.623047" xlink:href="#DejaVuSans-121"/>
     <use x="2019.802734" xlink:href="#DejaVuSans-112"/>
     <use x="2083.279297" xlink:href="#DejaVuSans-101"/>
     <use x="2144.802734" xlink:href="#DejaVuSans-115"/>
    </g>
   </g>
  </g>
 </g>
 <defs>
  <clipPath id="p599890e99b">
   <rect height="136.50125" width="392.56" x="57.44" y="26.16"/>
  </clipPath>
 </defs>
</svg>
